<svg width="60" height="60">
    <path
        d="M0 0 C3.97555216 0.00914976 7.95103737 -0.00496778 11.92657566 -0.01591969 C19.69066702 -0.0336049 27.45460275 -0.02990988 35.21869993 -0.01826912 C41.53487158 -0.00919539 47.85099994 -0.00802773 54.16717625 -0.01236439 C55.0698589 -0.01297732 55.97254156 -0.01359025 56.90257823 -0.01422176 C58.73698347 -0.0155008 60.57138869 -0.01679766 62.40579391 -0.01811212 C79.56315486 -0.02948863 96.72042999 -0.01645037 113.87777686 0.00508934 C128.56480139 0.02295765 143.25169941 0.01985271 157.93872166 0.0014143 C175.03925053 -0.02004437 192.1397044 -0.02839027 209.24024487 -0.01613665 C211.06749184 -0.0148626 212.89473882 -0.01360511 214.72198582 -0.01236439 C216.07016417 -0.01143873 216.07016417 -0.01143873 217.44557846 -0.01049438 C223.74618813 -0.00705644 230.04674979 -0.01283607 236.34735203 -0.0222826 C244.03712363 -0.0335597 251.72673214 -0.03034354 259.41648531 -0.00915962 C263.33174667 0.00127462 267.2467372 0.00560491 271.16199589 -0.00775623 C304.92877738 -0.11311744 332.06105192 5.74523952 357.04223728 30.05024242 C380.5685509 54.81286928 385.08016651 83.05734311 384.96747971 116.07831764 C384.95832995 120.0538698 384.97244748 124.02935501 384.98339939 128.0048933 C385.0010846 135.76898466 384.99738959 143.53292039 384.98574883 151.29701757 C384.9766751 157.61318922 384.97550744 163.92931758 384.97984409 170.24549389 C384.98045703 171.14817654 384.98106996 172.0508592 384.98170146 172.98089588 C384.98298051 174.81530111 384.98427736 176.64970634 384.98559183 178.48411155 C384.99696833 195.6414725 384.98393008 212.79874763 384.96239036 229.9560945 C384.94452206 244.64311903 384.94762699 259.33001705 384.96606541 274.0170393 C384.98752408 291.11756817 384.99586997 308.21802205 384.98361635 325.31856251 C384.9823423 327.14580948 384.98108482 328.97305646 384.97984409 330.80030346 C384.97891844 332.14848182 384.97891844 332.14848182 384.97797409 333.5238961 C384.97453614 339.82450577 384.98031577 346.12506744 384.98976231 352.42566967 C385.00103941 360.11544127 384.99782325 367.80504978 384.97663933 375.49480295 C384.96620508 379.41006431 384.9618748 383.32505484 384.97523594 387.24031353 C385.08059715 421.00709502 379.22224018 448.13936956 354.91723728 473.12055492 C330.15461043 496.64686854 301.9101366 501.15848415 268.88916206 501.04579735 C264.9136099 501.03664759 260.9381247 501.05076512 256.9625864 501.06171703 C249.19849505 501.07940225 241.43455931 501.07570723 233.67046213 501.06406647 C227.35429049 501.05499274 221.03816212 501.05382508 214.72198582 501.05816174 C213.36796183 501.05908113 213.36796183 501.05908113 211.98658383 501.06001911 C210.15217859 501.06129815 208.31777337 501.062595 206.48336816 501.06390947 C189.32600721 501.07528598 172.16873207 501.06224772 155.0113852 501.04070801 C140.32436067 501.0228397 125.63746266 501.02594463 110.95044041 501.04438305 C93.84991153 501.06584172 76.74945766 501.07418761 59.6489172 501.06193399 C57.82167023 501.06065994 55.99442324 501.05940246 54.16717625 501.05816174 C53.26839068 501.05754463 52.3696051 501.05692753 51.44358361 501.05629173 C45.14297393 501.05285378 38.84241227 501.05863341 32.54181004 501.06807995 C24.85203844 501.07935705 17.16242993 501.07614089 9.47267675 501.05495697 C5.5574154 501.04452272 1.64242486 501.04019244 -2.27283382 501.05355358 C-36.03961531 501.15891479 -63.17188985 495.30055783 -88.15307522 470.99555492 C-111.67938884 446.23292807 -116.19100445 417.98845424 -116.07831764 384.96747971 C-116.06916789 380.99192755 -116.08328542 377.01644234 -116.09423733 373.04090405 C-116.11192254 365.27681269 -116.10822753 357.51287695 -116.09658676 349.74877977 C-116.08751303 343.43260813 -116.08634537 337.11647977 -116.09068203 330.80030346 C-116.09129496 329.8976208 -116.09190789 328.99493815 -116.0925394 328.06490147 C-116.09381844 326.23049624 -116.0951153 324.39609101 -116.09642977 322.5616858 C-116.10780627 305.40432485 -116.09476802 288.24704972 -116.0732283 271.08970284 C-116.05535999 256.40267832 -116.05846493 241.7157803 -116.07690334 227.02875805 C-116.09836201 209.92822917 -116.10670791 192.8277753 -116.09445429 175.72723484 C-116.09318024 173.89998787 -116.09192275 172.07274088 -116.09068203 170.24549389 C-116.09006493 169.34670832 -116.08944783 168.44792275 -116.08881202 167.52190125 C-116.08537408 161.22129158 -116.09115371 154.92072991 -116.10060024 148.62012768 C-116.11187734 140.93035608 -116.10866119 133.24074757 -116.08747727 125.5509944 C-116.07704302 121.63573304 -116.07271273 117.72074251 -116.08607388 113.80548382 C-116.19143508 80.03870233 -110.33307812 52.90642779 -86.02807522 27.92524242 C-61.26544836 4.3989288 -33.02097454 -0.1126868 0 0 Z "
        fill="#6275F8" transform="translate(115.55541896820068,-0.5228986740112305)"/>
    <path
        d="M0 0 C1.15551865 0.00040787 1.15551865 0.00040787 2.3343811 0.00082397 C21.25227509 0.03142555 39.86451663 1.08258452 58.375 5.1875 C59.7251722 5.46657297 61.07543504 5.74520771 62.42578125 6.0234375 C77.7288593 9.28615909 92.23746691 14.73202418 106.625 20.8125 C107.4819043 21.17239014 108.33880859 21.53228027 109.22167969 21.90307617 C110.04055664 22.25732666 110.85943359 22.61157715 111.703125 22.9765625 C112.76901855 23.43603271 112.76901855 23.43603271 113.85644531 23.90478516 C115.10312988 24.539729 115.10312988 24.539729 116.375 25.1875 C117.02312778 25.48947076 117.67125557 25.79144152 118.33902359 26.1025629 C123.92818109 29.04477056 123.92818109 29.04477056 125.10309219 32.04957962 C125.3613544 34.34580846 125.36573004 36.52379875 125.28320312 38.83325195 C125.28437134 39.6922963 125.28553955 40.55134064 125.28674316 41.43641663 C125.28118176 44.26786634 125.21902899 47.09507054 125.15625 49.92578125 C125.14132437 51.89159341 125.12993887 53.85743538 125.12194824 55.82328796 C125.09143934 60.99112478 125.01288713 66.15715542 124.92431641 71.32427979 C124.84239797 76.5994015 124.80592396 81.87481584 124.765625 87.15039062 C124.67989167 97.49688624 124.54339966 107.84204279 124.375 118.1875 C123.13323305 118.88976141 121.88114401 119.57379109 120.625 120.25 C119.92890625 120.63285156 119.2328125 121.01570313 118.515625 121.41015625 C115.97894228 122.33132388 114.87133893 122.11087282 112.375 121.1875 C110.52246094 120.17529297 110.52246094 120.17529297 108.609375 118.9296875 C107.89265625 118.47231201 107.1759375 118.01493652 106.4375 117.54370117 C105.674375 117.05490479 104.91125 116.5661084 104.125 116.0625 C95.82644795 110.88678009 87.51061897 106.66336364 78.375 103.1875 C77.33206787 102.78772949 77.33206787 102.78772949 76.26806641 102.37988281 C59.35533607 96.02563244 41.06352017 92.09018392 22.95703125 91.984375 C22.17792892 91.97867493 21.3988266 91.97297485 20.59611511 91.96710205 C18.95658701 91.95771734 17.31704061 91.95114431 15.67749023 91.94726562 C13.21107833 91.93759247 10.7455129 91.90652028 8.27929688 91.875 C-4.21050198 91.79146539 -17.03820973 91.85360274 -26.5 101 C-28.15543273 104.21889698 -28.00053027 106.61996244 -27.625 110.1875 C-23.19182842 120.22046727 -10.15668973 124.57251275 -0.58935547 128.40283203 C11.61563114 133.08029006 23.95789867 137.37691523 36.33203125 141.58203125 C67.567568 152.22247653 97.47878704 163.55637973 121.375 187.1875 C122.01308594 187.765 122.65117187 188.3425 123.30859375 188.9375 C141.31891871 205.57521359 150.64078539 229.63527454 151.78125 253.73828125 C152.49091666 282.60726596 147.26764857 311.08077239 127.375 333.1875 C126.94058594 333.67105957 126.50617188 334.15461914 126.05859375 334.65283203 C118.98840116 342.4098574 111.67078019 348.16363755 102.375 353.1875 C101.28574219 353.79207031 100.19648438 354.39664062 99.07421875 355.01953125 C83.78385908 363.11442755 67.40335863 367.51032685 50.375 370.1875 C49.2722876 370.36627686 48.1695752 370.54505371 47.03344727 370.72924805 C34.89060125 372.48652835 22.81431858 372.54049243 10.5625 372.5 C9.4801709 372.49884186 8.3978418 372.49768372 7.28271484 372.49649048 C-9.20820114 372.46159084 -25.31634733 371.81483323 -41.625 369.1875 C-42.41487305 369.07003418 -43.20474609 368.95256836 -44.01855469 368.83154297 C-48.92267383 368.10197825 -53.77473503 367.21432793 -58.625 366.1875 C-59.4200293 366.02024414 -60.21505859 365.85298828 -61.03417969 365.68066406 C-85.93441597 360.33468911 -109.46544517 351.85010276 -131.625 339.1875 C-131.625 309.1575 -131.625 279.1275 -131.625 248.1875 C-124.625 244.1875 -124.625 244.1875 -122.11328125 244.18359375 C-118.78364871 245.52694628 -115.82889614 247.32867041 -112.8125 249.25 C-88.9771441 263.92399816 -63.15816925 273.23477314 -35.625 278.1875 C-34.62831299 278.37127197 -33.63162598 278.55504395 -32.60473633 278.74438477 C-23.01833422 280.32488558 -13.57344216 280.52705328 -3.87573242 280.50317383 C-1.19473742 280.50000854 1.48515554 280.52358554 4.16601562 280.54882812 C16.87951105 280.59672068 28.86375804 280.10937261 40.375 274.1875 C41.035 274.1875 41.695 274.1875 42.375 274.1875 C44.74376239 269.59802287 44.94727021 265.23640007 44.375 260.1875 C41.23083942 252.23462325 32.63319519 247.89162812 25.28515625 244.47265625 C23.93527367 243.83820335 23.93527367 243.83820335 22.55812073 243.19093323 C9.98909117 237.44928017 -3.13364661 233.11290508 -16.1875 228.625 C-58.06291468 214.20057203 -58.06291468 214.20057203 -75.5625 203.75 C-76.34206055 203.28883789 -77.12162109 202.82767578 -77.92480469 202.35253906 C-102.92446671 187.29088702 -123.03777097 165.88039836 -131.4375 137.5625 C-131.86451297 135.77800752 -132.25971201 133.98564298 -132.625 132.1875 C-132.82867187 131.19363281 -133.03234375 130.19976562 -133.2421875 129.17578125 C-138.15880771 100.71999988 -133.4088802 72.28081862 -116.7578125 48.5234375 C-93.87761548 18.61778579 -60.54852104 6.19877248 -24.22363281 0.83276367 C-16.18643586 -0.11651822 -8.08116221 -0.01069494 0 0 Z "
        fill="#B90A37" transform="translate(241.625,63.8125)"/>
</svg>
